<?xml version="1.0" encoding="utf-8"?>
<svg viewBox="103.90000915527344 205.39999389648438 212.8999786376953 216.39999389648438" width="212.8999786376953" height="216.39999389648438" xmlns="http://www.w3.org/2000/svg"><g class="st10" style="opacity: 0.5;" transform="matrix(1, 0, 0, 1, 0, 0)">
	
		<radialGradient id="SVGID_11_" cx="274.9982" cy="345.5447" r="98.3243" gradientTransform="matrix(0.9729 -0.231 0.231 0.9729 -135.2823 40.9462)" gradientUnits="userSpaceOnUse">
		<stop offset="0" style="stop-color:#D4FEFF"/>
		<stop offset="0.4297" style="stop-color:#D2FDFF"/>
		<stop offset="0.5844" style="stop-color:#CBFAFF"/>
		<stop offset="0.6948" style="stop-color:#C0F4FF"/>
		<stop offset="0.784" style="stop-color:#AFECFF"/>
		<stop offset="0.8595" style="stop-color:#99E2FF"/>
		<stop offset="0.9247" style="stop-color:#7FD6FF"/>
		<stop offset="1" style="stop-color:#15A6FF"/>
	</radialGradient>
	<path class="st14" d="M309.4,299.3c7.4,49.9-24.5,98.1-74.6,110C182,421.8,129,389.1,116.4,336.3c-12.5-52.8,20.1-105.8,72.9-118.4&#10;&#9;&#9;c52.8-12.5,105.8,20.1,118.4,72.9C308.4,293.7,308.9,296.5,309.4,299.3" style="fill: url('#SVGID_11_');"/>
	<path class="st3" d="M301.1,342.1c0,0-0.4,2-1.3,5.3c-0.5,1.7-1.2,3.7-2,6c-0.5,1.1-1,2.3-1.5,3.6c-0.3,0.6-0.6,1.3-0.9,2&#10;&#9;&#9;c-0.3,0.6-0.7,1.3-1,2c-0.3,0.7-0.7,1.4-1.1,2.1c-0.4,0.7-0.7,1.4-1.2,2.1c-0.9,1.4-1.7,2.8-2.7,4.3c-1,1.4-2.1,2.9-3.1,4.4&#10;&#9;&#9;c-0.5,0.8-1.2,1.4-1.7,2.2c-0.6,0.7-1.2,1.5-1.8,2.2c-0.6,0.7-1.3,1.4-1.9,2.1c-0.7,0.7-1.3,1.4-2,2.1l-1,1.1l-1.1,1&#10;&#9;&#9;c-0.7,0.7-1.5,1.3-2.2,2c-3,2.6-6.3,5.1-9.7,7.3l-1.3,0.9c-0.4,0.3-0.9,0.5-1.3,0.8c-0.9,0.5-1.8,1-2.7,1.5l-1.3,0.8&#10;&#9;&#9;c-0.4,0.2-0.9,0.5-1.4,0.7c-0.9,0.4-1.8,0.9-2.7,1.3c-1.8,0.9-3.7,1.6-5.5,2.3c-0.9,0.4-1.8,0.8-2.7,1c-0.9,0.3-1.8,0.6-2.8,0.9&#10;&#9;&#9;c-0.9,0.3-1.8,0.6-2.7,0.8c-0.9,0.2-1.8,0.4-2.7,0.6c-0.9,0.2-1.8,0.4-2.6,0.6l-0.7,0.2l-0.4,0.1l-0.3,0.1&#10;&#9;&#9;c-0.4,0.1-0.9,0.2-1.3,0.2c-0.8,0.1-1.7,0.3-2.5,0.4c-0.8,0.1-1.7,0.2-2.5,0.3c-1.6,0.2-3.2,0.3-4.7,0.4c-1.5,0.1-3,0.1-4.3,0.2&#10;&#9;&#9;c-1.4,0-2.7,0-3.9-0.1c-2.5-0.1-4.6-0.3-6.3-0.5c-1.7-0.2-3.1-0.5-4-0.6c-0.9-0.2-1.4-0.3-1.4-0.3s0.5,0,1.4,0c0.9,0,2.3,0,4-0.1&#10;&#9;&#9;c0.9,0,1.8,0,2.9-0.1c1-0.1,2.2-0.2,3.4-0.3c1.2-0.1,2.5-0.3,3.8-0.4c1.3-0.2,2.7-0.4,4.2-0.6c1.4-0.3,3-0.5,4.5-0.9&#10;&#9;&#9;c0.8-0.2,1.5-0.3,2.3-0.5c0.8-0.2,1.6-0.4,2.4-0.6c0.4-0.1,0.8-0.2,1.3-0.3l0.3-0.1c0,0,0.2-0.1,0.3-0.1l0.6-0.2&#10;&#9;&#9;c0.8-0.3,1.6-0.5,2.5-0.8c0.8-0.3,1.7-0.5,2.5-0.8c0.8-0.3,1.7-0.6,2.5-1c0.9-0.3,1.7-0.6,2.6-1c0.9-0.3,1.7-0.8,2.6-1.1&#10;&#9;&#9;c1.7-0.8,3.5-1.5,5.1-2.4c3.4-1.7,6.7-3.7,10-5.8c3.2-2.1,6.3-4.4,9.2-6.9c2.9-2.4,5.6-5,8.2-7.6c1.2-1.3,2.5-2.6,3.6-4&#10;&#9;&#9;c1.1-1.3,2.2-2.7,3.3-4c1-1.3,2-2.7,2.9-3.9c1-1.3,1.7-2.6,2.6-3.8c0.4-0.6,0.8-1.2,1.2-1.8c0.4-0.6,0.7-1.2,1-1.8&#10;&#9;&#9;c0.7-1.2,1.3-2.2,2-3.3c0.6-1.1,1.1-2.1,1.6-3c0.5-0.9,1-1.7,1.3-2.5C300.2,343.8,301.1,342.1,301.1,342.1z" style="fill: rgb(255, 255, 255);"/>
	<path class="st3" d="M119.1,304.3c0,0,0-0.5,0-1.4c0-0.9,0-2.2,0.1-3.9c0.1-1.7,0.3-3.7,0.6-6.1c0.2-1.2,0.4-2.4,0.6-3.7&#10;&#9;&#9;c0.1-0.7,0.3-1.3,0.4-2c0.1-0.7,0.3-1.4,0.5-2.1c0.7-2.8,1.6-5.9,2.8-9c1.2-3.1,2.6-6.4,4.3-9.6c0.4-0.8,0.9-1.6,1.3-2.4&#10;&#9;&#9;c0.5-0.8,0.9-1.6,1.4-2.4c0.5-0.8,1-1.6,1.5-2.4c0.5-0.8,1.1-1.6,1.6-2.4c2.2-3.2,4.7-6.2,7.4-9.1c2.7-2.9,5.6-5.6,8.6-8&#10;&#9;&#9;c3-2.5,6.1-4.6,9.2-6.6c3.1-2,6.3-3.5,9.3-5c3.1-1.4,6-2.5,8.8-3.3c2.8-0.9,5.4-1.5,7.7-2c1.1-0.3,2.2-0.4,3.2-0.6&#10;&#9;&#9;c0.5-0.1,1-0.2,1.4-0.2c0.5-0.1,0.9-0.1,1.3-0.2c1.7-0.2,3-0.3,3.9-0.4c0.9-0.1,1.4-0.1,1.4-0.1s-0.5,0.2-1.3,0.4&#10;&#9;&#9;c-0.9,0.3-2.1,0.7-3.7,1.2c-0.4,0.1-0.9,0.2-1.2,0.4c-0.4,0.2-0.9,0.3-1.4,0.5c-0.9,0.4-2,0.7-3,1.1c-1.1,0.4-2.2,0.8-3.4,1.4&#10;&#9;&#9;c-1.2,0.5-2.4,1-3.7,1.6c-0.6,0.3-1.3,0.6-2,0.9c-0.7,0.3-1.3,0.7-2,1c-1.4,0.7-2.7,1.4-4.1,2.2c-2.8,1.6-5.7,3.3-8.5,5.3&#10;&#9;&#9;c-2.8,2-5.7,4.2-8.5,6.6c-2.7,2.4-5.4,4.9-8,7.6c-2.5,2.7-4.9,5.5-7.1,8.4c-2.2,2.9-4.2,5.9-6,8.9c-1.8,3-3.4,6-4.8,8.8&#10;&#9;&#9;c-0.7,1.5-1.3,2.9-1.9,4.3c-0.3,0.7-0.6,1.4-0.9,2.1c-0.3,0.7-0.5,1.4-0.8,2c-1,2.6-1.8,5.1-2.5,7.3c-0.6,2.2-1.2,4.1-1.6,5.8&#10;&#9;&#9;c-0.4,1.6-0.7,2.9-0.9,3.8C119.2,303.8,119.1,304.3,119.1,304.3z" style="fill: rgb(255, 255, 255);"/>
	<path d="M 261.799988 319.100006 L 262.799988 318.899994" class="st4" style="fill: none;"/>
	<g>
		<path class="st3" d="M280.5,309.8l-10.7,2.5c-1.3,10.4-5,19.5-9.6,27.1l8.9,5.5C275.7,334,279.5,322.1,280.5,309.8z" style="fill: rgb(255, 255, 255);"/>
		<path class="st3" d="M234.2,366.5l2.5,10.7c4.1-2.5,12.7-8.4,21.2-17.6c3.1-3.3,5.8-6.8,8.3-10.3l-8.9-5.5&#10;&#9;&#9;&#9;C249.4,355,239.8,362.6,234.2,366.5z" style="fill: rgb(255, 255, 255);"/>
		<path class="st3" d="M257.7,366.1c-7.1,7.4-14.3,12.9-19.7,16.6l2.5,10.7c6-3.8,15.2-10.3,24.4-19.9c5.1-5.3,9.6-10.8,13.5-16.7&#10;&#9;&#9;&#9;l-8.8-5.4C266.2,356.5,262.2,361.4,257.7,366.1z" style="fill: rgb(255, 255, 255);"/>
		<path class="st3" d="M296.4,306l-10.7,2.5c-1.5,13.7-5.9,26.6-13.2,38.5l8.8,5.4C289.9,338.2,295,322.5,296.4,306z" style="fill: rgb(255, 255, 255);"/>
	</g>
	
		<linearGradient id="SVGID_12_" gradientUnits="userSpaceOnUse" x1="180.2563" y1="356.3891" x2="211.4887" y2="356.3891" gradientTransform="matrix(0.9729 -0.231 0.231 0.9729 -135.2823 40.9462)">
		<stop offset="0" style="stop-color:#FFFFFF"/>
		<stop offset="0.1591" style="stop-color:#FBFDFF"/>
		<stop offset="0.3256" style="stop-color:#EEF9FF"/>
		<stop offset="0.4955" style="stop-color:#D9F1FF"/>
		<stop offset="0.6679" style="stop-color:#BCE5FF"/>
		<stop offset="0.8403" style="stop-color:#97D7FF"/>
		<stop offset="1" style="stop-color:#6DC7FF"/>
	</linearGradient>
	<path class="st15" d="M122.1,344.2c6.9,21.7,21.5,33,28.8,35.4c7.3,2.5,14.3-5.1,6.5-12.9c-7.8-7.8-19.5-19.4-23.1-38.1&#10;&#9;&#9;c-3.5-18.8-3.6-28.5-10.2-24.3C116.2,309.4,118.3,332,122.1,344.2z" style="fill: url('#SVGID_12_');"/>
	
		<linearGradient id="SVGID_13_" gradientUnits="userSpaceOnUse" x1="316.2026" y1="337.0931" x2="366.4379" y2="337.0931" gradientTransform="matrix(0.9729 -0.231 0.231 0.9729 -135.2823 40.9462)">
		<stop offset="0" style="stop-color:#6DC7FF"/>
		<stop offset="0.9839" style="stop-color:#FFFFFF"/>
	</linearGradient>
	<path class="st16" d="M271.3,278.4c9,20.4,9.2,40.2,5.4,53.7c-3.3,12-0.1,28.6,12.9,16.5c13-12.1,17.4-37.9,9.1-64.6&#10;&#9;&#9;c-8.3-26.7-20.6-42.2-38.7-49.8c-18.1-7.6-31,5.4-16.4,16.6C258.2,261.9,267.3,269.2,271.3,278.4z" style="fill: url('#SVGID_13_');"/>
</g></svg>